<svg xmlns="http://www.w3.org/2000/svg" width="21" height="18" fill="none"><path fill="#161614" d="M10.5 0C5.238 0 .97 4.131.97 9.228c0 4.077 2.731 7.536 6.518 8.756.476.086.65-.2.65-.444 0-.22-.008-.947-.012-1.718-2.651.558-3.21-1.089-3.21-1.089-.434-1.066-1.059-1.35-1.059-1.35-.865-.572.065-.56.065-.56.957.064 1.461.95 1.461.95.85 1.41 2.23 1.003 2.773.767.086-.596.333-1.003.605-1.234-2.116-.233-4.341-1.024-4.341-4.56 0-1.008.372-1.83.981-2.477-.099-.232-.425-1.171.093-2.442 0 0 .8-.248 2.621.946a9.4 9.4 0 0 1 2.385-.31 9.4 9.4 0 0 1 2.387.31c1.82-1.194 2.618-.946 2.618-.946.52 1.271.193 2.21.094 2.442.61.646.98 1.47.98 2.477 0 3.544-2.229 4.325-4.35 4.553.341.286.646.848.646 1.709 0 1.235-.011 2.228-.011 2.532 0 .246.171.534.654.443 3.784-1.222 6.511-4.68 6.511-8.755C20.03 4.13 15.763 0 10.5 0M4.54 13.145c-.021.046-.096.06-.164.028-.069-.03-.107-.092-.085-.138.02-.047.095-.06.164-.029.07.03.109.093.085.14m.469.405c-.046.041-.135.022-.195-.042-.062-.065-.074-.15-.028-.192.047-.04.133-.022.196.042.062.066.074.151.027.192m.321.518c-.058.04-.154.003-.213-.08-.058-.081-.058-.18.002-.219.059-.04.153-.004.213.078.058.083.058.181-.002.222m.544.6c-.052.056-.163.041-.245-.035-.083-.074-.106-.18-.054-.235.053-.056.165-.04.247.035.082.074.108.18.052.236m.703.203c-.023.072-.13.105-.238.075-.108-.032-.179-.117-.157-.19.023-.072.13-.107.239-.074.108.032.178.116.156.19m.8.086c.002.076-.09.14-.202.14-.114.003-.206-.058-.208-.133 0-.077.09-.14.204-.141.113-.003.206.059.206.134m.786-.029c.013.074-.066.15-.178.17-.11.02-.213-.025-.227-.1s.066-.151.177-.171c.112-.02.213.025.228.101"/></svg>